<?xml version="1.0" encoding="utf-8"?>
<!-- Generator: Adobe Illustrator 24.0.0, SVG Export Plug-In . SVG Version: 6.00 Build 0)  -->
<svg version="1.1" id="Layer_1" xmlns="http://www.w3.org/2000/svg" xmlns:xlink="http://www.w3.org/1999/xlink" x="0px" y="0px"
	 viewBox="0 0 32 32" style="enable-background:new 0 0 32 32;" xml:space="preserve">
<style type="text/css">
	.st0{fill-rule:evenodd;clip-rule:evenodd;fill:#F4FFFF;}
</style>
<path class="st0" d="M16,0C7.17,0,0.01,7.16,0.01,16c0,7.07,4.58,13.06,10.94,15.18c0.8,0.15,1.05-0.33,1.05-0.75
	c0-0.38,0.01-1.44,0-2.78c-4.45,0.97-5.37-2.11-5.37-2.11C5.9,23.69,4.85,23.2,4.85,23.2c-1.45-0.99,0.11-0.97,0.11-0.97
	c1.61,0.11,2.45,1.65,2.45,1.65c1.43,2.44,3.74,1.74,4.65,1.33c0.15-1.03,0.56-1.74,1.02-2.14c-3.55-0.4-7.29-1.78-7.29-7.91
	c0-1.75,0.62-3.17,1.65-4.29c-0.17-0.4-0.72-2.03,0.16-4.23c0,0,1.34-0.43,4.4,1.64c1.28-0.36,2.65-0.53,4.01-0.54
	c1.36,0.01,2.73,0.18,4.01,0.54c3.06-2.07,4.4-1.64,4.4-1.64c0.87,2.2,0.32,3.83,0.16,4.23c1.02,1.12,1.64,2.55,1.64,4.29
	c0,6.15-3.74,7.5-7.3,7.89C19.48,23.55,20,24.51,20,26c0,2,0,3.9,0,4.43c0,0.43,0.26,0.9,1.07,0.75C27.42,29.06,32,23.06,32,16
	C32,7.16,24.84,0,16,0z"/>
</svg>
