<svg height="60pt" viewBox="0 0 60 60" width="60pt" xmlns="http://www.w3.org/2000/svg" xmlns:xlink="http://www.w3.org/1999/xlink"><linearGradient id="a"><stop offset="0" stop-color="#fff33b"/><stop offset=".014" stop-color="#fee72e"/><stop offset=".042" stop-color="#fed51b"/><stop offset=".07" stop-color="#fdca10"/><stop offset=".1" stop-color="#fdc70c"/><stop offset=".4" stop-color="#f3903f"/><stop offset=".8" stop-color="#ed683c"/><stop offset="1" stop-color="#e93e3a"/></linearGradient><linearGradient id="b" gradientTransform="matrix(1 0 0 -1 0 60)" gradientUnits="userSpaceOnUse" x1="29.9889" x2="29.9889" xlink:href="#a" y1="63.51" y2="-.051"/><linearGradient id="c" gradientTransform="matrix(1 0 0 -1 0 60)" gradientUnits="userSpaceOnUse" x1="30.0089" x2="30.0089" xlink:href="#a" y1="63.737" y2=".177"/><linearGradient id="d" gradientTransform="matrix(1 0 0 -1 0 60)" gradientUnits="userSpaceOnUse" x1="30" x2="30" xlink:href="#a" y1="63.675" y2="-.083"/><linearGradient id="e" gradientTransform="matrix(1 0 0 -1 0 60)" gradientUnits="userSpaceOnUse" x1="30" x2="30" xlink:href="#a" y1="63.638" y2=".044"/><linearGradient id="f" gradientTransform="matrix(1 0 0 -1 0 60)" gradientUnits="userSpaceOnUse" x1="8" x2="8" xlink:href="#a" y1="63.634" y2="-.04"/><linearGradient id="g" gradientTransform="matrix(1 0 0 -1 0 60)" gradientUnits="userSpaceOnUse" x1="11" x2="11" xlink:href="#a" y1="63.658" y2="-.017"/><linearGradient id="h" gradientTransform="matrix(1 0 0 -1 0 60)" gradientUnits="userSpaceOnUse" x1="14" x2="14" xlink:href="#a" y1="63.681" y2=".006"/><linearGradient id="i" gradientTransform="matrix(1 0 0 -1 0 60)" gradientUnits="userSpaceOnUse" x1="52" x2="52" xlink:href="#a" y1="63.975" y2=".3"/><linearGradient id="j" gradientTransform="matrix(1 0 0 -1 0 60)" gradientUnits="userSpaceOnUse" x1="35" x2="35" xlink:href="#a" y1="62.66" y2=".429"/><linearGradient id="k" gradientTransform="matrix(1 0 0 -1 0 60)" gradientUnits="userSpaceOnUse" x1="25" x2="25" xlink:href="#a" y1="62.585" y2=".354"/><linearGradient id="l" gradientTransform="matrix(1 0 0 -1 0 60)" gradientUnits="userSpaceOnUse" x1="30" x2="30" xlink:href="#a" y1="60.947" y2=".982"/><linearGradient id="m" gradientTransform="matrix(1 0 0 -1 0 60)" gradientUnits="userSpaceOnUse" x1="18.9995" x2="18.9995" xlink:href="#a" y1="63.635" y2="-.167"/><linearGradient id="n" gradientTransform="matrix(1 0 0 -1 0 60)" gradientUnits="userSpaceOnUse" x1="40.9981" x2="40.9981" xlink:href="#a" y1="63.804" y2=".006"/><linearGradient id="o" gradientTransform="matrix(1 0 0 -1 0 60)" gradientUnits="userSpaceOnUse" x1="29.998" x2="29.998" xlink:href="#a" y1="63.722" y2="-.082"/><path d="m40.253906 28.109375c-.492187-.25-1.09375-.054687-1.34375.4375-.386718.75-.863281 1.449219-1.421875 2.078125-.046875-.039062-.097656-.070312-.148437-.109375-.109375-.082031-.222656-.160156-.332032-.242187-.222656-.160157-.445312-.308594-.675781-.453126-.121093-.078124-.246093-.152343-.371093-.222656-.242188-.140625-.488282-.269531-.742188-.390625-.113281-.054687-.222656-.113281-.339844-.167969-.367187-.164062-.738281-.3125-1.117187-.441406-2.449219-.789062-5.082031-.789062-7.527344 0-.378906.128906-.753906.273438-1.117187.441406-.113282.050782-.222657.109376-.335938.164063-.253906.121094-.5.25-.746094.394531-.125.070313-.246094.144532-.367187.21875-.230469.144532-.453125.300782-.675781.457032-.109376.078124-.222657.15625-.332032.242187-.050781.039063-.097656.070313-.152344.109375-.558593-.632812-1.035156-1.328125-1.417968-2.082031-.234375-.496094-.832032-.710938-1.328125-.476563-.5.238282-.714844.832032-.480469 1.332032.011719.015624.019531.035156.027344.050781.570312 1.121093 1.3125 2.144531 2.203125 3.035156.085937.085937.164062.160156.25.238281l.007812.011719.015625.011719h.007813c4.613281 4.324218 11.789062 4.324218 16.398437 0h.007813l.015625-.011719.011718-.011719c.085938-.074218.164063-.152344.253907-.242187.886719-.890625 1.628906-1.910157 2.199219-3.027344.253906-.488281.0625-1.089844-.425782-1.34375zm-6.109375 2.800781.164063.078125c.21875.105469.433594.21875.648437.339844.078125.046875.164063.09375.242188.140625.273437.167969.539062.34375.800781.539062-.855469.640626-1.808594 1.140626-2.820312 1.480469.410156-.828125.730468-1.695312.964843-2.589843zm-1.902343-.644531c-.714844 2.6875-1.722657 3.734375-2.242188 3.734375s-1.527344-1.046875-2.246094-3.742188c1.480469-.332031 3.011719-.332031 4.492188 0zm-7.441407 1.199219c.078125-.046875.15625-.09375.234375-.136719.214844-.125.433594-.238281.65625-.347656l.164063-.074219c.230469.890625.554687 1.753906.964843 2.578125-1.011718-.339844-1.964843-.84375-2.820312-1.484375.261719-.191406.527344-.371094.800781-.535156zm0 0" fill="url(#b)"/><path d="m19.746094 19.890625c.492187.25 1.09375.054687 1.34375-.4375.386718-.75.863281-1.449219 1.421875-2.078125.046875.039062.097656.070312.148437.109375.109375.082031.222656.160156.332032.242187.222656.160157.445312.308594.675781.453126.125.078124.246093.152343.371093.222656.242188.140625.488282.269531.742188.390625.113281.054687.222656.113281.339844.167969.363281.164062.738281.3125 1.117187.441406.503907.160156 1.015625.285156 1.535157.378906 1.996093.378906 4.054687.25 5.988281-.378906h.003906c.378906-.128906.75-.273438 1.117187-.441406.113282-.050782.226563-.109376.339844-.167969.25-.121094.5-.25.742188-.386719.121094-.074219.242187-.144531.363281-.222656.234375-.144532.460937-.300782.683594-.457032.109375-.082031.21875-.15625.324219-.238281.050781-.039062.097656-.074219.152343-.109375.558594.628906 1.035157 1.328125 1.421875 2.078125.234375.496094.832032.710938 1.328125.476563.5-.238282.714844-.832032.480469-1.332032-.011719-.015624-.019531-.035156-.027344-.050781-.574218-1.121093-1.316406-2.144531-2.203125-3.035156-.085937-.085937-.164062-.164063-.25-.242187l-.007812-.007813c-.136719-.128906-.285157-.242187-.429688-.363281-.140625-.121094-.285156-.257813-.4375-.375-.152343-.117188-.328125-.230469-.492187-.347656-.148438-.097657-.289063-.210938-.4375-.304688-.179688-.113281-.363282-.210938-.546875-.3125-.144531-.082031-.285157-.171875-.433594-.25-.199219-.097656-.398437-.179688-.601563-.269531-.140624-.0625-.277343-.136719-.421874-.191407-.203126-.082031-.402344-.140624-.601563-.210937-.152344-.050781-.300781-.109375-.457031-.15625-.207032-.058594-.421875-.097656-.632813-.152344-.152343-.035156-.304687-.082031-.464843-.109375-.21875-.042968-.441407-.066406-.664063-.101562-.152344-.019532-.300781-.050782-.457031-.066406-.382813-.035157-.769532-.054688-1.152344-.054688s-.761719.019531-1.140625.054688c-.148437.011718-.292969.042968-.441406.0625-.226563.03125-.453125.054687-.679688.101562-.148437.027344-.300781.070312-.445312.105469-.21875.050781-.4375.09375-.648438.15625-.15625.046875-.300781.105469-.457031.15625-.203125.070312-.410156.128906-.605469.210937-.144531.054688-.285156.128906-.425781.191406-.199219.089844-.398438.171876-.601562.269532-.144532.074218-.277344.164062-.417969.242187-.1875.105469-.378907.199219-.5625.320313-.144531.089844-.28125.199218-.421875.300781-.167969.113281-.34375.226563-.507813.355469-.164062.125-.292969.246094-.4375.371094s-.289062.238281-.429687.367187l-.007813.007813c-.085937.074218-.164062.152343-.253906.242187-.886719.890625-1.628906 1.914063-2.199219 3.03125-.253906.488281-.058594 1.089844.429688 1.34375zm14.398437-2.792969c-.230469-.894531-.554687-1.757812-.964843-2.582031 1.011718.34375 1.964843.84375 2.820312 1.484375-.578125.433594-1.199219.800781-1.855469 1.101562zm-1.898437.644532c-1.480469.332031-3.011719.332031-4.492188 0 .71875-2.695313 1.726563-3.742188 2.246094-3.742188s1.527344 1.046875 2.246094 3.742188zm-6.390625-.640626c-.65625-.300781-1.277344-.667968-1.855469-1.101562.855469-.640625 1.808594-1.140625 2.824219-1.484375-.414063.828125-.734375 1.691406-.96875 2.585937zm0 0" fill="url(#c)"/><path d="m54.351562 48c3.117188-.003906 5.644532-2.53125 5.648438-5.648438v-36.703124c-.003906-3.117188-2.53125-5.64453175-5.648438-5.648438h-48.703124c-3.117188.00390625-5.64453175 2.53125-5.648438 5.648438v36.703124c.00390625 3.117188 2.53125 5.644532 5.648438 5.648438h.351562v2h-2.4375c-1.65625 0-3 1.34375-3 3 0 .246094.027344.488281.089844.726562l1 4c.332031 1.335938 1.53125 2.273438 2.910156 2.273438h50.875c1.378906 0 2.578125-.9375 2.910156-2.273438l1-4c.402344-1.605468-.574218-3.234374-2.179687-3.636718-.238281-.058594-.484375-.089844-.730469-.089844h-2.4375v-2zm-52.351562-5.648438v-36.703124c.003906-2.011719 1.636719-3.644532 3.648438-3.648438h48.703124c2.011719.003906 3.644532 1.636719 3.648438 3.648438v36.703124c-.003906 2.011719-1.636719 3.644532-3.648438 3.648438h-48.703124c-2.011719-.003906-3.644532-1.636719-3.648438-3.648438zm55.226562 10.035157c.191407.242187.257813.558593.183594.855469l-1 4c-.113281.445312-.511718.757812-.972656.757812h-50.875c-.460938 0-.859375-.3125-.972656-.757812l-1-4c-.132813-.535157.191406-1.078126.730468-1.210938.078126-.019531.160157-.03125.242188-.03125h17.4375v3c0 .550781.449219 1 1 1h16c.550781 0 1-.449219 1-1v-3h17.4375c.308594 0 .601562.140625.789062.386719zm-34.226562-.386719h14v2h-14zm29-2h-44v-2h44zm0 0" fill="url(#d)"/><path d="m57 42.414062v-36.828124c-.003906-1.429688-1.15625-2.582032-2.585938-2.585938h-48.828124c-1.429688.003906-2.582032 1.15625-2.585938 2.585938v36.828124c.003906 1.429688 1.15625 2.582032 2.585938 2.585938h48.828124c1.429688-.003906 2.582032-1.15625 2.585938-2.585938zm-51.414062-37.414062h48.828124c.324219 0 .585938.261719.585938.585938v3.414062h-50v-3.414062c0-.324219.261719-.585938.585938-.585938zm-.585938 37.414062v-31.414062h50v31.414062c0 .324219-.261719.585938-.585938.585938h-48.828124c-.324219 0-.585938-.261719-.585938-.585938zm0 0" fill="url(#e)"/><path d="m7 6h2v2h-2zm0 0" fill="url(#f)"/><path d="m10 6h2v2h-2zm0 0" fill="url(#g)"/><path d="m13 6h2v2h-2zm0 0" fill="url(#h)"/><path d="m51 6h2v2h-2zm0 0" fill="url(#i)"/><path d="m31 37h8v2h-8zm0 0" fill="url(#j)"/><path d="m21 37h8v2h-8zm0 0" fill="url(#k)"/><path d="m21 40h18v2h-18zm0 0" fill="url(#l)"/><path d="m21 28h.027344c.421875-.011719.789062-.285156.921875-.683594l2-6c.171875-.527344-.109375-1.089844-.636719-1.265625-.523438-.175781-1.089844.109375-1.265625.632813l-1.136719 3.410156-.988281-2.46875c-.140625-.386719-.511719-.636719-.921875-.625-.40625 0-.773438.25-.925781.628906l-.984375 2.464844-1.140625-3.410156c-.171875-.523438-.738281-.808594-1.265625-.632813-.523438.175781-.808594.738281-.632813 1.265625l2 6c.175781.523438.742188.804688 1.265625.632813.277344-.09375.503906-.304688.613282-.578125l1.070312-2.679688 1.070312 2.679688c.152344.382812.519532.628906.929688.628906zm0 0" fill="url(#m)"/><path d="m45.316406 20.050781c-.523437-.171875-1.089844.109375-1.265625.632813l-1.136719 3.410156-.984374-2.464844c-.152344-.382812-.519532-.628906-.929688-.628906-.40625 0-.773438.246094-.925781.625l-.988281 2.46875-1.136719-3.410156c-.175781-.523438-.742188-.808594-1.265625-.632813-.527344.175781-.8125.738281-.636719 1.265625l2 6c.132813.398438.5.671875.921875.683594h.03125c.410156 0 .777344-.246094.929688-.628906l1.070312-2.679688 1.070312 2.679688c.207032.515625.789063.761718 1.300782.558594.273437-.109376.484375-.335938.578125-.613282l2-6c.171875-.523437-.109375-1.089844-.632813-1.265625zm0 0" fill="url(#n)"/><path d="m33.050781 20.683594-1.136719 3.410156-.984374-2.464844c-.203126-.511718-.785157-.761718-1.300782-.558594-.253906.101563-.457031.304688-.558594.558594l-.984374 2.464844-1.136719-3.410156c-.175781-.523438-.742188-.808594-1.265625-.632813-.527344.175781-.8125.738281-.636719 1.265625l2 6c0 .015625.015625.027344.023437.039063.015626.039062.035157.074219.054688.109375.035156.070312.082031.140625.132812.199218.027344.03125.054688.058594.085938.082032.066406.058594.144531.109375.226562.148437.019532.007813.03125.027344.054688.035157h.027344c.109375.046874.230468.066406.347656.070312h.011719c.015625 0 .027343-.007812.042969-.007812.089843-.003907.175781-.015626.261718-.042969.015625-.003907.023438-.015625.039063-.019531.058593-.027344.117187-.0625.171875-.101563.054687-.027344.105468-.0625.15625-.101563.039062-.042968.074218-.089843.105468-.140624.046876-.054688.082032-.113282.117188-.175782.003906-.011718.015625-.019531.023438-.03125l1.070312-2.6875 1.070312 2.679688c.007813.015625.019532.027344.027344.042968.015625.03125.03125.0625.050782.089844.042968.070313.09375.140625.15625.199219.023437.027344.050781.050781.078124.070313.078126.066406.167969.117187.261719.152343.015625 0 .023438.015625.039063.023438h.011718c.097657.03125.203126.046875.304688.050781.117188-.003906.234375-.023438.34375-.066406.007812 0 .019531 0 .027344-.003906.007812-.007813.035156-.027344.054687-.039063.082031-.039063.160157-.085937.226563-.148437.03125-.023438.058594-.050782.085937-.082032.050781-.058594.097657-.125.132813-.199218.019531-.035157.039062-.070313.054687-.105469.007813-.015625.015625-.027344.023438-.042969l2-6c.171875-.523438-.109375-1.089844-.636719-1.265625-.523438-.175781-1.089844.109375-1.265625.636719zm0 0" fill="url(#o)"/></svg>